<svg xmlns="http://www.w3.org/2000/svg" width="52.794" height="52.792" viewBox="0 0 52.794 52.792">
  <g id="_6ee6db38ed18d3d57bbd8bb81a6f50fc" data-name="6ee6db38ed18d3d57bbd8bb81a6f50fc" transform="translate(0 -0.01)">
    <path id="Path_277" data-name="Path 277" d="M52.761,1.472a1.8,1.8,0,0,0-.488-.926q-.062-.062-.129-.118A1.8,1.8,0,0,0,51.019.01h0a1.728,1.728,0,0,0-.246.013h0a1.79,1.79,0,0,0-.655.213L.958,26.315a1.8,1.8,0,0,0,.15,3.258L16.5,36.006a1.8,1.8,0,0,0,1.946-.364L35.772,18.964,22.071,37.1a1.8,1.8,0,0,0,.428,2.581L40.417,51.83A1.8,1.8,0,0,0,43.2,50.685L52.754,2.194a1.846,1.846,0,0,0,.04-.348,1.769,1.769,0,0,0-.033-.375ZM16.8,32.221,6.018,27.715,40.469,9.437ZM40.187,47.315,26.095,37.762,47.705,9.154Z" transform="translate(0)" fill="#fff"/>
    <path id="Path_278" data-name="Path 278" d="M162,336.8l-6.777,6.6-2.15-13.234-3.561.579,2.706,16.656a1.805,1.805,0,0,0,3.04,1l9.259-9.019Z" transform="translate(-134.097 -296.118)" fill="#fff"/>
    <path id="Path_279" data-name="Path 279" d="M176.176,378.353l3.609-12.808,3.472.978-3.609,12.808Z" transform="translate(-158.01 -327.844)" fill="#fff"/>
  </g>
</svg>
