<svg xmlns="http://www.w3.org/2000/svg" xmlns:xlink="http://www.w3.org/1999/xlink" width="621.043" height="753.461" viewBox="0 0 621.043 753.461">
  <defs>
    <clipPath id="clip-path">
      <rect id="Rectangle_69" data-name="Rectangle 69" width="707.21" height="561.542" fill="none" stroke="#87fdd4" stroke-width="3" stroke-dasharray="5 3"/>
    </clipPath>
  </defs>
  <g id="Group_81" data-name="Group 81" transform="translate(618.054 48.68) rotate(95)">
    <g id="Group_56" data-name="Group 56" transform="translate(0 -3)" clip-path="url(#clip-path)">
      <path id="Path_141" data-name="Path 141" d="M.442,555.33A523.2,523.2,0,0,1,161.9,372.241c32.03-22.46,68.209-41.768,107.3-43.413s81.2,18.6,94.8,55.285c11.581,31.243-.191,68.083-23.909,91.485s-57.4,34.629-90.648,36.842c-22.085,1.469-45.8-1.262-63.076-15.1-16.538-13.251-24.488-34.569-28.163-55.44-9.012-51.17,3.625-104.6,28.236-150.354s60.582-84.513,99.638-118.779A773.512,773.512,0,0,1,484.833,46.221C554.783,15.506,631.1-4.914,707.2,1.768" transform="translate(-0.035 5.997)" fill="none" stroke="#87fdd4" stroke-width="3" stroke-dasharray="5 3"/>
    </g>
  </g>
</svg>
