<svg xmlns="http://www.w3.org/2000/svg" xmlns:xlink="http://www.w3.org/1999/xlink" width="286.017" height="330.228" viewBox="0 0 286.017 330.228">
  <defs>
    <clipPath id="clip-path">
      <rect id="Rectangle_69" data-name="Rectangle 69" width="286.411" height="227.417" fill="none" stroke="#fc81d6" stroke-width="3" stroke-dasharray="5 5"/>
    </clipPath>
  </defs>
  <g id="Group_82" data-name="Group 82" transform="translate(67.351 329.553) rotate(-103)">
    <g id="Group_56" data-name="Group 56" transform="translate(0 -3)" clip-path="url(#clip-path)">
      <path id="Path_141" data-name="Path 141" d="M.442,225.2A211.89,211.89,0,0,1,65.831,151.05c12.972-9.1,27.624-16.916,43.453-17.582s32.886,7.534,38.393,22.39c4.69,12.653-.077,27.573-9.683,37.05s-23.247,14.024-36.711,14.92c-8.944.6-18.55-.511-25.545-6.117-6.7-5.367-9.917-14-11.406-22.452-3.65-20.723,1.468-42.36,11.435-60.891s24.535-34.227,40.352-48.1a313.262,313.262,0,0,1,80.495-51.248c28.329-12.439,59.237-20.709,90.057-18" transform="translate(-0.277 2.132)" fill="none" stroke="#fc81d6" stroke-width="3" stroke-dasharray="5 5"/>
    </g>
  </g>
</svg>
