<svg xmlns="http://www.w3.org/2000/svg" width="79.998" height="97.78" viewBox="0 0 79.998 97.78">
  <g id="af8fb7c7b71ec3ac7d819cec1f4e3797" transform="translate(72.648 -1.389) rotate(80)">
    <path id="Path_131" data-name="Path 131" d="M41.442,48.234,27.74,59.442,25,43Z" transform="translate(9.254 12.956)" fill="#e29f33"/>
    <path id="Path_132" data-name="Path 132" d="M43.681,30,21.552,45.072,1,38.221Z" transform="translate(0.37 8.144)" fill="#f6bb42"/>
    <path id="Path_133" data-name="Path 133" d="M85.95,9,43.681,37.773,1,45.994Z" transform="translate(0.37 0.371)" fill="#ffce54"/>
    <path id="Path_134" data-name="Path 134" d="M80.4,9,45.623,40.116,28.331,55.585l2.74,16.442L16,52.845,38.128,37.773Z" transform="translate(5.923 0.371)" fill="#edab37"/>
    <path id="Path_135" data-name="Path 135" d="M42.291,31.71,55.144,56.77l-13.7-4.357L25,47.179Z" transform="translate(9.254 8.777)" fill="#f6bb42"/>
    <path id="Path_136" data-name="Path 136" d="M72.395,9,50.472,65.177,37.62,40.116Z" transform="translate(13.925 0.371)" fill="#ffce54"/>
    <g id="Group_55" data-name="Group 55" transform="translate(0 7.998)">
      <path id="Path_137" data-name="Path 137" d="M36.994,73.767a1.368,1.368,0,0,1-1.077-.523L21.1,54.385.937,47.663a1.369,1.369,0,0,1-.114-2.555L85.773,8.113A1.369,1.369,0,0,1,87.6,9.867L65.673,66.044a1.37,1.37,0,0,1-1.691.808L35.974,57.941,38.3,71.907a1.348,1.348,0,0,1,.089.489,1.369,1.369,0,0,1-1.37,1.37ZM5.193,46.194l17.163,5.722a1.376,1.376,0,0,1,.644.452l11.763,14.97L32.9,56.18a1.369,1.369,0,0,1,1.766-1.53l28.919,9.2,20.258-51.91Z" transform="translate(0 -7.997)"/>
      <path id="Path_138" data-name="Path 138" d="M25.37,57.326a1.37,1.37,0,0,1-.914-2.391L76.522,8.349a1.37,1.37,0,1,1,1.828,2.042L26.284,56.976A1.367,1.367,0,0,1,25.37,57.326Z" transform="translate(8.884 -7.998)"/>
      <path id="Path_139" data-name="Path 139" d="M16.372,54.586a1.371,1.371,0,0,1-.771-2.5L80,8.238A1.37,1.37,0,0,1,81.539,10.5l-64.4,43.845A1.359,1.359,0,0,1,16.372,54.586ZM31.443,73.768a1.37,1.37,0,0,1-.867-2.431l13.7-11.211a1.37,1.37,0,1,1,1.733,2.122L32.309,73.46A1.368,1.368,0,0,1,31.443,73.768Zm27.4-6.851a1.369,1.369,0,0,1-1.221-.745L44.77,41.113a1.37,1.37,0,1,1,2.439-1.25L60.065,64.923a1.37,1.37,0,0,1-1.218,1.995Z" transform="translate(5.553 -7.998)"/>
      <path id="Path_140" data-name="Path 140" d="M1.369,39.961a1.371,1.371,0,0,1-.258-2.717L43.8,29.023a1.371,1.371,0,0,1,.519,2.692L1.631,39.937A1.432,1.432,0,0,1,1.369,39.961Z" transform="translate(0 -0.224)"/>
    </g>
  </g>
</svg>
